<svg id="Layer_1" data-name="Layer 1" xmlns="http://www.w3.org/2000/svg" viewBox="0 0 806.77 321.07"><defs><style>.cls-1{fill:#be2415;}.cls-2{fill:#464749;}.cls-3{fill:#adafb1;}.cls-4{fill:#605e5c;}.cls-5{fill:#fec300;}.cls-6{fill:#758190;}.cls-7{fill:#922725;}.cls-8{fill:#fe7503;}.cls-9{fill:#650000;}.cls-10{fill:#758290;}.cls-11{fill:#fe3399;}.cls-12{fill:#932725;}.cls-13{fill:#f25aa7;}.cls-14{fill:#fefe00;}.cls-15{fill:#141414;}.cls-16{fill:#151515;}.cls-17{fill:#0d0d0d;}</style></defs><title>fenics_banner</title><path class="cls-1" d="M196.5,269.05c-2.82,2.15-5.9,3.91-8.87,5.83-5.73,3.71-11.5,7.38-17.25,11.06-.5-.74-.08-1.45.11-2.14q2.52-9.39,5-18.8a2.32,2.32,0,0,0,.15-.88c-2.73,2.07-5.36,4.15-8,6.21l-10.69,8.31a4.27,4.27,0,0,1-1.22.76h-.2a.57.57,0,0,1-.32-.24c-1.31-3.64-2.19-7.4-3.28-11.1-.9-3.07-1.71-6.17-2.62-9.24-.44-1.48-.49-1.49-1.9-1-5.37,1.93-10.7,4-16.07,5.86-.48.17-1,.48-1.49.09l8.79-17.39a.34.34,0,0,1,.37,0c2.92,2.58,5.53,5.47,8.33,8.17a11.87,11.87,0,0,0,1.5,1.37c1.13-6.11,2.11-12.08,3.19-18a1.12,1.12,0,0,1,.22-.38,1.44,1.44,0,0,1,.81-.4c2.33,0,4.62.35,6.93.56,4.32.39,8.63.83,12.95,1.21a3.85,3.85,0,0,1,1.77.41.81.81,0,0,1,.28.33c-.09.79-.81,1-1.33,1.34q-11.1,7.43-22.21,14.83a2.89,2.89,0,0,0-1.16,1c1.88.55,3.77.89,5.63,1.31q9.24,2.06,18.49,4.12c.69.16,1.39.16,2.08.28a1.49,1.49,0,0,1,.38.15,47.47,47.47,0,0,0,7,2.36c4.17,1.36,8.37,2.6,12.55,3.93Z"/><path class="cls-2" d="M17.66,155.49a47.94,47.94,0,0,1,2.88-5q5.62-9.39,11.29-18.75a.31.31,0,0,1,.38,0,3.92,3.92,0,0,1,.73,1.8c2.64,7.9,5.19,15.83,7.75,23.75.47,1.46.5,1.46,1.89.74,6.81-3.52,13.58-7.14,20.37-10.7a2.87,2.87,0,0,1,1.83-.62c.45.72-.1,1.26-.37,1.81-4,8.15-8.27,16.14-12.26,24.29a6.42,6.42,0,0,0-.59,1.32,1,1,0,0,1-.16.35.7.7,0,0,1-.36.11.76.76,0,0,1-.35-.15c-3-4.25-5.77-8.65-8.69-12.94A6.37,6.37,0,0,0,40.8,160c-.26-.18-.6-.15-.87-.32-6.81-1.23-13.64-2.31-20.45-3.53A2.88,2.88,0,0,1,17.66,155.49Z"/><path class="cls-1" d="M92.85,264l-.35.32a.41.41,0,0,1-.43,0c-2.29-.43-4.61-.48-6.92-.69q-8.71-.79-17.43-1.52c-2.49-.2-5-.5-7.47-.62a2.88,2.88,0,0,1-1.64-.4.64.64,0,0,1-.24-.36c.07-.57.55-.75,1-1,3.75-2,7.53-3.95,11.31-5.9,3.19-1.65,6.33-3.41,9.58-5a1.48,1.48,0,0,0,.78-.61c-1.24-.35-2.43-.6-3.62-.84-6.06-1.2-12.1-2.54-18.16-3.75a4.61,4.61,0,0,1-2.09-.72.62.62,0,0,1-.1-.4c.26-.71,1-.87,1.52-1.16,5.95-3,11.91-5.95,17.86-8.94,2-1,3.84-2.1,5.82-3,1.49-.7,1.94-.46,1.86,1.19-.15,3.06-.43,6.1-.63,9.16a73,73,0,0,0-.4,8,6.37,6.37,0,0,0,1.23,2.58c2.66,4.06,5.45,8,8,12.16C92.57,263,93,263.41,92.85,264Z"/><path class="cls-2" d="M92.75,151l-9.59-18.44.16-.13a1.72,1.72,0,0,1,1.28.11c7.59,2.75,15.34,5,22.91,7.85,6.22,3.1,12.27,6.53,18.48,9.65a3.83,3.83,0,0,1,1.18.82.7.7,0,0,1,.13.36.94.94,0,0,1-.21.32c-5.24,3.91-10.56,7.7-15.84,11.55-2.66,1.94-5.26,3.95-8,5.75a.86.86,0,0,1-.73.07.29.29,0,0,1-.08-.2,5,5,0,0,1,.09-2.21c1.39-7.8,2.65-15.62,4-23.42a2.22,2.22,0,0,0,0-1.23,6.68,6.68,0,0,0-1.65,1c-3.6,2.56-7.19,5.15-10.81,7.69C93.73,150.87,93.36,151.4,92.75,151Z"/><path class="cls-3" d="M.2,207.37c-.29-.3-.2-.62-.11-1Q4.27,190.19,8.44,174c0-.12.15-.21.23-.31a1.18,1.18,0,0,1,.33.19c2.45,1.69,5.17,2.92,7.74,4.4,4.39,2.53,8.94,4.78,13.28,7.4a.78.78,0,0,1,.16.35.91.91,0,0,1-.07.38A65.45,65.45,0,0,1,24,190.69c-7.44,5.08-14.83,10.24-22.31,15.26a3.79,3.79,0,0,0-.9.76C.6,206.93.49,207.24.2,207.37Z"/><path class="cls-3" d="M64.82,146.86l-14.91,7.77q-4,2.1-8,4.22c-.52.28-.87.52-1.14-.32q-4.28-13.39-8.61-26.75c.59-.39,1.11,0,1.61.19,7.13,3.3,14.3,6.49,21.44,9.76,2.39,1.1,4.77,2.22,7.2,3.24.85.36,1.61.88,2.45,1.26.23.13.46.26.49.56A.35.35,0,0,1,64.82,146.86Z"/><path class="cls-1" d="M102.78,298l.23-.29a.54.54,0,0,1,.4-.06c6.8,2.8,13.61,5.56,20.41,8.36,1.27.52,1.45.46,1.61-.88.43-3.69.78-7.39,1.16-11.09.17-1.61.42-3.21.47-4.83a1,1,0,0,1,.07-.41.55.55,0,0,1,.34-.22,1.05,1.05,0,0,1,.41,0c6.35,2.58,12.68,5.2,19,7.81.62.25,1.4.3,1.7,1.08q-13.07,5.5-26.14,11c-4.64,1.94-9.32,3.81-14,5.71-.4.16-.82.27-1.24.4a1.8,1.8,0,0,1-.65-1.24c-1.18-4.53-2.43-9-3.6-13.57A4.9,4.9,0,0,1,102.78,298Z"/><path class="cls-2" d="M163.33,109.12c5.34,5.49,10.68,11,15.84,16.64l-.18.11a3.09,3.09,0,0,1-1.75-.45q-10.2-4.19-20.43-8.32a1.15,1.15,0,0,0-.82-.19c.24,2.37.62,4.74.93,7.1q.67,5,1.36,10a1.7,1.7,0,0,1-.09,1,.58.58,0,0,1-.31.25,93.9,93.9,0,0,1-8.44-4.46c-5.23-2.82-10.43-5.7-15.65-8.55-1-.52-1.92-1-2.83-1.64a.44.44,0,0,1-.13-.38.89.89,0,0,1,.23-.37,13.92,13.92,0,0,1,3.83-.82c6.69-1.14,13.39-2.21,20.07-3.38,1.31-.51,2.13-1.66,3.13-2.54,1.28-1.12,2.61-2.2,3.8-3.43C162.27,109.34,162.62,108.76,163.33,109.12Z"/><path class="cls-3" d="M84,67.46l.29-.21c3.8-2.54,7.94-4.47,11.92-6.68,5.44-3,10.94-5.94,16.55-9-2.55-.4-5-.56-7.43-.83-1.65-.18-3.32-.28-5-.54-.3,0-.62-.07-.81-.37q6.16-5.88,12.33-11.75c2.09-2,4.21-3.94,6.32-5.9.28-.26.6-.5.9-.75.48.64.11,1.27,0,1.88-1.43,5.82-3,11.59-4.45,17.41-.68,4.07-1.29,8.14-2,12.21a3.61,3.61,0,0,1-.57,1.73,1.2,1.2,0,0,1-.4.24c-4.72.81-9.49,1.11-14.24,1.66-3.88.45-7.76.85-11.64,1.25a3.34,3.34,0,0,1-1.43,0A.77.77,0,0,1,84,67.46Z"/><path class="cls-4" d="M206,157.64a.16.16,0,0,1,0,.21,5,5,0,0,1,.35,3.21c-.3,3.14-.31,6.29-.42,9.44-.09,2.67-.35,5.33-.38,8,0,.39-.2.76-.26,1.15-.23,1.45-.54,1.62-1.75.87-8.33-5.13-16.65-10.28-25-15.39a1.26,1.26,0,0,1-.48-.44.4.4,0,0,1,.15-.37c3-1,6.09-1.54,9.14-2.31,6.06-1.53,12.17-2.84,18.21-4.45A.46.46,0,0,1,206,157.64Z"/><path class="cls-1" d="M.2,207.37c.09-.27-.1-.64.29-.8a2.92,2.92,0,0,1,1.66-.19c8.28.72,16.55,1.53,24.84,2.23a6.61,6.61,0,0,1,2.55.54c.7.84-.16,1.08-.6,1.34-2.29,1.39-4.62,2.7-6.93,4.05-6.09,3.58-12.25,7-18.3,10.68a1.11,1.11,0,0,1-.35.15c-.78-1.74-.77-3.64-1.1-5.47C1.51,215.73.88,211.55.2,207.37Z"/><path class="cls-3" d="M113.54,188.43a.56.56,0,0,1-.28-.52,1.31,1.31,0,0,1,.46-.77c4.05-4,7.78-8.26,11.9-12.16.39-.37.76-.93,1.44-.46,1.53,3,2.78,6.22,4.11,9.36,2.1,4.95,4.23,9.88,6.3,14.84a3.38,3.38,0,0,1,.44,1.62.5.5,0,0,1-.23.31,1.37,1.37,0,0,1-1.13-.21C128.89,196.45,121.15,192.57,113.54,188.43Z"/><path d="M64.82,146.86l.49,0q4.95,6.67,9.89,13.35c.25.34.63.62.65,1.11l-.09.17c-2.22,1.4-4.58,2.56-6.89,3.8-5.32,2.86-10.63,5.73-16,8.54-.48.25-.95.67-1.58.45-.23-.5.19-.82.37-1.18q6.3-12.51,12.63-25C64.5,147.67,64.65,147.26,64.82,146.86Z"/><path class="cls-1" d="M114.9,218.15c.66,2.9.82,5.88,1.25,8.81.21,1.47.33,2.95.5,4.43a3.56,3.56,0,0,1-1.86.58c-4.58.29-9.15.73-13.73,1.12a3.91,3.91,0,0,1-.52,0c-3.63-.54-7.16-1.55-10.75-2.3-1.41-.3-2.81-.64-4.22-.93a5,5,0,0,1-2.05-.8.41.41,0,0,1,.08-.55c2.29-1.14,4.12-2.91,6.11-4.45,3.32-2.56,6.6-5.17,9.89-7.75a2.6,2.6,0,0,1,1.48-.78.61.61,0,0,1,.27.27c0,2.49-.1,5-.25,7.45-.17,2.74-.15,5.49-.33,8.28,1.87-1.76,3.76-3.42,5.57-5.16,2.44-2.33,4.78-4.76,7.17-7.14a3.67,3.67,0,0,1,1.21-1Z"/><path class="cls-1" d="M57.15,242.71q0,.1,0,.2c.3,2.17.39,4.36.55,6.54q.32,4.26.63,8.51a8.9,8.9,0,0,1-.06,2.1,1.08,1.08,0,0,1-1,.9,71.89,71.89,0,0,1-8.67-1.35c-5.44-.89-10.85-1.93-16.28-2.83a16.58,16.58,0,0,1-1.86-.61.2.2,0,0,1-.19-.1c.16-.73.86-.83,1.37-1.09,7-3.6,14.11-6.89,21.11-10.43,1.29-.65,2.59-1.3,3.87-2A.54.54,0,0,1,57.15,242.71Z"/><path class="cls-2" d="M129.84,263.81c3-1.05,5.94-2.09,8.9-3.16,3.13-1.13,6.25-2.29,9.38-3.43.47-.17,1-.51,1.22.36q3,10.87,6.09,21.73a.81.81,0,0,1-.74,0c-6.63-3.82-13.16-7.82-19.74-11.73-1.69-1-3.41-2-5.08-3a.65.65,0,0,1-.21-.32Z"/><path class="cls-5" d="M56.6,242.72c-.22.5-.74.59-1.15.8L31.62,255.34c-.47.23-.92.49-1.38.74l-.21-.2a6.83,6.83,0,0,1-.6-3.19c-.36-3.79-.73-7.58-1.07-11.38-.07-.83-.33-1.8.73-2.3a6.35,6.35,0,0,1,2.48.08c7.75,1,15.49,2,23.24,3a4.18,4.18,0,0,1,1.64.44Z"/><path class="cls-3" d="M179.18,125.75l.22.18c.18.4.33.8.51,1.2,1.28,5.85,2.38,11.73,3.57,17.6.09.46.23,1-.18,1.36a1.42,1.42,0,0,1-1.37-.14l-22.23-9.8a3.51,3.51,0,0,1-1.44-.89c0-.68.49-.87,1-1.08l18.4-8.08c.48-.21,1-.1,1.44-.42h.09Z"/><path class="cls-6" d="M8.7,174l0-.29,8.36-17c.19-.39.42-.76.64-1.14l16.28,2.76,5.55.94c.34.06.73,0,.79.49a3.77,3.77,0,0,1-2,1.24c-6.36,2.84-12.67,5.78-19,8.63-3.08,1.38-6.15,2.76-9.21,4.19A1.82,1.82,0,0,1,8.7,174Z"/><path class="cls-5" d="M92.85,264l-9.68-14.79c-.24-.37-.73-.73-.19-1.23l.16-.17a77.92,77.92,0,0,1,9.2-1.47q7.22-1,14.44-2a3.38,3.38,0,0,1,1.43,0,.81.81,0,0,1,.37.27q-5.5,6.84-11,13.67C96,260.17,94.43,262.08,92.85,264Z"/><path class="cls-7" d="M154.87,279.08l.55.23h0a1.92,1.92,0,0,1-.2,1.52c-1.86,4.91-3.65,9.84-5.47,14.77a5.84,5.84,0,0,1-.93,1.87.16.16,0,0,1-.21.1l-19.38-8a3.8,3.8,0,0,1-1.48-.8c.15-.49.61-.59,1-.77a19.67,19.67,0,0,1,2-.73C138.79,284.62,146.85,281.89,154.87,279.08Z"/><path class="cls-4" d="M70.59,99.91l0-.25c.48-1.23,1.66-1.78,2.58-2.55,6-5,12-10.08,18.07-15.06a3.18,3.18,0,0,0,.87-1,1.19,1.19,0,0,1,.35-.47,1.52,1.52,0,0,1,.82,0c.25.11.62.12.53.55a3.65,3.65,0,0,0-.91,2.4c-.37,5.59-1,11.15-1.38,16.75a3.59,3.59,0,0,1-.59,2,2,2,0,0,1-1.64.23c-5.78-.72-11.55-1.49-17.33-2.21A2.17,2.17,0,0,1,70.59,99.91Z"/><path class="cls-8" d="M225.24,243.42a.51.51,0,0,1-.25.52c-2.94,1.26-6,2-9.06,3-3.94,1.29-7.9,2.53-11.85,3.8a3,3,0,0,1-1.91.28.78.78,0,0,1-.33-.26c-.78-2.05-1.18-4.22-1.79-6.32-.83-2.91-1.56-5.85-2.38-8.76a3.12,3.12,0,0,1-.23-1.92c.52-.5,1.08-.21,1.59,0,7.27,2.7,14.59,5.26,21.87,7.93a12.92,12.92,0,0,0,4,1.16C225.27,242.92,225.43,243.08,225.24,243.42Z"/><path class="cls-2" d="M226.48,192.66l.08.25-.09.21a3.41,3.41,0,0,1-1.48.82c-6,2.42-12,4.71-18,7.14a7.87,7.87,0,0,1-.74.27c-1,.3-1.33.1-1.42-1,0-.44,0-.88,0-1.32,0-5.83,0-11.67,0-17.5a.6.6,0,0,1,.25-.57.78.78,0,0,1,.41,0c6.63,3.53,13.15,7.25,19.81,10.73A7.77,7.77,0,0,1,226.48,192.66Z"/><path d="M144.35,89.37l.21.32c1.13,1.39,1.57,3.13,2.24,4.73,2.68,6.39,5.33,12.79,8,19.18.26.63.7,1.24.49,2-.73.52-1.14-.15-1.55-.49-2.64-2.23-5.25-4.5-7.86-6.77-4.92-4.27-9.88-8.51-14.78-12.81a2.47,2.47,0,0,1-.56-.55.84.84,0,0,1-.07-.39.79.79,0,0,1,.16-.37,23.43,23.43,0,0,1,4.83-2c2.28-.9,4.57-1.79,6.88-2.62C143,89.34,143.63,88.93,144.35,89.37Z"/><path class="cls-9" d="M102.78,298c1.22,3.67,2,7.46,3.08,11.18.5,1.8.93,3.62,1.39,5.44l-17.19,4.72-6.29,1.7,5.45-6.62Z"/><path class="cls-2" d="M114.26,50.6q1.79-7,3.57-14.09c.43-1.69.82-3.39,1.22-5.08l.27-.26c.61-.39,1.2-.08,1.77.09,5.2,1.57,10.42,3,15.62,4.61.53.16,1.14.24,1.37.88-.11.63-.6.93-1.09,1.22L116,50.6c-.44.26-.87.63-1.45.47C114.3,51,114.17,50.85,114.26,50.6Z"/><path class="cls-4" d="M126.87,174.5c-.57,0-.81.49-1.13.82q-5.67,5.75-11.32,11.53c-.37.37-.77.71-1.16,1.06-3.65-6.29-7.29-12.58-10.76-19l.48-.25c7.81,1.73,15.61,3.49,23.43,5.18a1.48,1.48,0,0,1,.4.15.41.41,0,0,1,.21.34Z"/><path class="cls-3" d="M83.16,132.57,74.6,113.84a2.65,2.65,0,0,1,1.13-1.23c4.36-3.1,8.77-6.14,13.13-9.24.59-.42,1.16-1.27,2.12-.65a9.49,9.49,0,0,1-.65,3.2c-2.12,8.41-4.36,16.79-6.49,25.2-.1.38-.21.76-.34,1.13a3.5,3.5,0,0,1-.22.37l-.08,0Z"/><path class="cls-7" d="M99.85,194c.26.11.21.34.23.55l-.12.17a52.55,52.55,0,0,1-6.73,2.22c-3.51,1.11-7,2.25-10.56,3.26a1.24,1.24,0,0,1-.41.06.79.79,0,0,1-.38-.14.92.92,0,0,1-.16-.37c-1.93-5.94-3.77-11.91-5.67-17.87a4.82,4.82,0,0,1-.42-1.77.77.77,0,0,1,.17-.36.53.53,0,0,1,.39-.05q10,5.9,19.94,11.89A20.7,20.7,0,0,1,99.85,194Z"/><path class="cls-6" d="M114.6,50.95c4.59-2.72,9.18-5.43,13.75-8.17,3.23-1.93,6.43-3.9,9.65-5.85a.13.13,0,0,1,.23,0l-7,20.31a.57.57,0,0,1-.39.12c-5.25-1.76-10.49-3.56-15.7-5.46C114.79,51.8,113.8,51.77,114.6,50.95Z"/><path class="cls-8" d="M113.54,188.43a20,20,0,0,1,4.83,2.25c6.18,3.16,12.33,6.39,18.49,9.59a5.27,5.27,0,0,0,.86.28c.42.49,0,.82-.25,1.12-3,3.23-6.39,6.09-9.51,9.21a.68.68,0,0,1-.48.18q-4.58-7.4-9.16-14.8C116.71,193.64,115.13,191,113.54,188.43Z"/><path class="cls-8" d="M155.66,279.32c2.71-2.14,5.41-4.28,8.13-6.41,4.06-3.18,8.14-6.34,12.52-9.74-.42,1.64-.75,2.95-1.1,4.25q-2.35,8.81-4.71,17.61a6.8,6.8,0,0,0-.12.91q0,.1-.09.11a20.19,20.19,0,0,1-4.61-1.85q-4.54-1.95-9-4C156.28,280,155.67,280,155.66,279.32Z"/><path class="cls-10" d="M64.82,146.26c-1.24.05-2.17-.77-3.2-1.22-6.3-2.8-12.55-5.74-18.85-8.55-3.54-1.58-7-3.4-10.65-4.69l-.29,0a.56.56,0,0,1,.29-.5c6.69-.57,13.36-1.22,20.06-1.62Z"/><path class="cls-6" d="M92.75,151c2.86-1.7,5.44-3.8,8.17-5.69,2-1.41,4-2.86,6.37-4.51l-1,5.73q-1.78,10.39-3.57,20.78c-.08.47-.21.94-.31,1.41q-3.38-6.14-6.77-12.28C94.67,154.64,93.71,152.82,92.75,151Z"/><path class="cls-1" d="M92.17,264.3l.32,0q-5,5.55-10,11.11c-2,2.24-4.07,4.46-6.1,6.7-.29.32-.49.66-1.07.39-3.94-1.87-7.9-3.7-11.86-5.55l.06-.19a23.31,23.31,0,0,1,4.94-2.41c7.45-3.32,14.89-6.66,22.38-9.9C91.25,264.29,91.67,263.93,92.17,264.3Z"/><path class="cls-3" d="M92.5,80.68l-.05.49a3.85,3.85,0,0,1-1.7.63C84.61,83,78.49,84.28,72.36,85.48c-.58.11-1.19.4-1.76,0l11.19-15L84,67.46l.11.1Q88,73.41,91.9,79.29C92.18,79.71,92.6,80.09,92.5,80.68Z"/><path class="cls-4" d="M138.24,36.94H138c-.9-1-2.22-.93-3.35-1.28-5.09-1.56-10.21-3-15.32-4.49Q123.66,27.08,128,23c1.91-1.79,3.85-3.56,5.78-5.33a1.94,1.94,0,0,1,.58,1.28c1.35,5.83,2.88,11.62,4.11,17.48Z"/><path class="cls-7" d="M127.47,211q4.67-4.58,9.32-9.17c.38-.38,1-.65.92-1.34h0a.31.31,0,0,1,.41,0,1.31,1.31,0,0,1,.27,1.11q0,14.66,0,29.31a2,2,0,0,1,0,.93c-.07.36-.07.75-.47,1a6.9,6.9,0,0,0-.82-2.44q-4.6-9.17-9.18-18.36C127.77,211.76,127.63,211.4,127.47,211Z"/><path class="cls-3" d="M130.92,57.25h.27c.45,5.52.06,11.07.5,16.59a.57.57,0,0,1-.36.16c-2.58-.74-4.86-2.16-7.28-3.27-3.69-1.69-7.33-3.51-11-5.22a1.86,1.86,0,0,1-.73-.55c-.43-1,.44-1,.92-1.21,2.36-.94,4.73-1.84,7.1-2.74,3-1.13,6-2.31,8.94-3.44A2.94,2.94,0,0,1,130.92,57.25Z"/><path class="cls-2" d="M70.59,85.44l20.56-4.07c.43-.08.86-.13,1.29-.19-1.18,1.61-2.9,2.63-4.38,3.91-3.37,2.9-6.84,5.7-10.26,8.54l-7.24,6c-.28-3.31-.08-6.62-.11-9.93A17.89,17.89,0,0,1,70.59,85.44Z"/><path d="M155.66,279.32,169,285.37c.43.2.84.45,1.26.68l-21.49,11.41c.67-2.58,1.76-5,2.66-7.5,1.28-3.56,2.63-7.1,4-10.66A.55.55,0,0,0,155.66,279.32Z"/><path class="cls-8" d="M127.23,288.82a.9.9,0,0,1,0,.21c-.44.7-1.23.81-1.91,1.06-6.9,2.47-13.75,5.07-20.63,7.58a1.66,1.66,0,0,1-1.39.13l-.27,0,14-17.64c1.41.2,2.17,1.39,3.16,2.18,2.18,1.74,4.27,3.61,6.42,5.38C126.92,288,127.41,288.21,127.23,288.82Z"/><path class="cls-4" d="M52.18,129.65a3.25,3.25,0,0,1-2,.54c-5.24.33-10.48.78-15.71,1.29a3.31,3.31,0,0,1-2.4-.22c2.91-4.8,5.82-9.59,8.71-14.4.41-.68.62-.64,1.08-.06Q47,123.25,52.18,129.65Z"/><path d="M205.42,181.07l-.1,0h-.1a3.88,3.88,0,0,1-.05-2.09c.21-5.46.39-10.93.64-16.39.07-1.57.21-3.14.18-4.71a44,44,0,0,1,3.77,5c2.8,3.84,5.54,7.73,8.31,11.6-.13.49-.54.66-.93.87-3.46,1.81-6.95,3.56-10.37,5.44C206.36,181,205.94,181.3,205.42,181.07Z"/><path class="cls-11" d="M205.42,181.07l12.65-6.61L225.76,191c.26.55.48,1.12.72,1.68q-9.27-5-18.53-10A7.67,7.67,0,0,1,205.42,181.07Z"/><path d="M134.05,17.44,154.41,0l.18.12c-1.14,2.72-2.27,5.44-3.42,8.15q-2.74,6.45-5.51,12.88a2.12,2.12,0,0,1-1.54-.08c-3.05-.81-6.07-1.75-9.12-2.57C134.51,18.37,133.78,18.31,134.05,17.44Z"/><path class="cls-1" d="M13.66,241.92c-1.68-2.19-3-4.61-4.43-6.94-2-3.18-3.92-6.41-5.88-9.61l.06,0c.56-.39,1,0,1.44.25,7.41,4.12,14.85,8.2,22.26,12.31.56.31,1.36.49,1.34,1.4a2.32,2.32,0,0,1-1.44.58c-3.89.7-7.78,1.35-11.67,2.08A3.21,3.21,0,0,1,13.66,241.92Z"/><path class="cls-6" d="M155.16,115.73a31.46,31.46,0,0,0-2-5.23c-2.73-6.62-5.51-13.22-8.26-19.82-.13-.32-.21-.66-.31-1,2.54,2.58,5.1,5.15,7.63,7.75q5.35,5.52,10.65,11.07c.18.19.33.4.5.6-1.57.8-2.61,2.23-3.94,3.33s-2.59,2.4-4,3.45A.23.23,0,0,1,155.16,115.73Z"/><path class="cls-5" d="M127.23,288.82a26.81,26.81,0,0,0-3.8-3.37c-2.09-1.84-4.29-3.57-6.44-5.34l12.35-15.66a1.28,1.28,0,0,1,.32-.21l.17.08c.52,2.1-.06,4.18-.21,6.25-.34,4.62-.84,9.24-1.19,13.86-.08,1.09-.29,2.17-.3,3.27a1.29,1.29,0,0,1-.6,1.11Z"/><path class="cls-1" d="M100.57,195c2.1,3.43,4.19,6.86,6.31,10.28,2.66,4.29,5.34,8.56,8,12.84l-.14.12a2,2,0,0,1-1.4.05c-3.61-.61-7.18-1.44-10.79-2.05a2.06,2.06,0,0,1-1.39-.65l-.1-.09a.88.88,0,0,1-.2-.37,2.71,2.71,0,0,1-.08-.63,10.25,10.25,0,0,0-.21-2.78,20.63,20.63,0,0,1-.1-3,9.64,9.64,0,0,0-.15-3,17.5,17.5,0,0,1-.11-2.82,11.18,11.18,0,0,0-.15-3.23,17.61,17.61,0,0,1-.11-2.83C100.15,196.28,99.66,195.42,100.57,195Z"/><path class="cls-10" d="M99.52,49.83l14.4,1.44c-1.41.79-2.52,1.44-3.64,2l-23,12.43a11.06,11.06,0,0,1-3,1.5Z"/><path class="cls-3" d="M131.44,73.84h.25a51.17,51.17,0,0,0,4.4,5.53c2.71,3.37,5.51,6.67,8.27,10a2,2,0,0,0-1.13.25l-12.58,4.76c-.32,0-.43-.18-.53-.42-.08-2.14.11-4.27.22-6.4.14-2.48.3-5,.41-7.45.09-2,.28-3.91.41-5.87A1.08,1.08,0,0,1,131.44,73.84Z"/><path class="cls-3" d="M226.56,192.91c1.91,5.86,3.83,11.71,5.71,17.57a5.18,5.18,0,0,1,.07,1.57q0,4.66-.08,9.33c-.46-.09-.5-.48-.51-.81-.06-3.27,0-6.54,0-9.49-.2.46-.92.85-1.49,1.38-3,2.79-6.05,5.44-9,8.22-.29.27-.61.7-1.12.34a2,2,0,0,1,0-1.53c1.88-8.3,3.79-16.59,5.63-24.91a7.22,7.22,0,0,1,.71-1.68A.07.07,0,0,1,226.56,192.91Z"/><path class="cls-10" d="M90.83,102.57a36.41,36.41,0,0,0-5.41,3.64c-3.63,2.5-7.22,5.08-10.82,7.62-1.44-4.61-2.84-9.23-4-13.92,2.83.07,5.61.62,8.41.94,3.06.35,6.11.81,9.17,1.15a8.59,8.59,0,0,0,2.72.26l.06.11A.15.15,0,0,1,90.83,102.57Z"/><path class="cls-8" d="M13.66,241.92c2.81-.53,5.62-1,8.43-1.59A45.36,45.36,0,0,0,28.43,239a.44.44,0,0,1,.24-.2.81.81,0,0,1,.33,0,.34.34,0,0,1,.25.37c-1.09.57-.54,1.56-.48,2.32.27,3.56.64,7.12,1,10.68a22.7,22.7,0,0,1,.27,3.66Q21.73,249,13.66,241.92Z"/><path class="cls-7" d="M30.42,256.17c2.43.18,4.8.73,7.2,1.14l17.59,3a6.12,6.12,0,0,0,1.93.26c.32.31.77,0,1.1.23a.38.38,0,0,1,0,.37c-3.51,2.07-7.08,4-10.59,6.09a1.49,1.49,0,0,1-1.37.22L31.86,257.29C31.36,256.94,30.9,256.55,30.42,256.17Z"/><path class="cls-5" d="M225.24,243.42,225,243c-.49-.27-.55-.77-.66-1.23-1.41-6.29-2.9-12.57-4.29-18.87a2.21,2.21,0,0,1,0-1.29c.6-.67,1.15-.1,1.63.15,2.6,1.36,5.19,2.74,7.72,4.21,1,.56,2.17.77,2.85,1.79C230,233,227.77,238.29,225.24,243.42Z"/><path class="cls-1" d="M99.85,194c-2.54-1.18-4.86-2.74-7.26-4.16q-7.69-4.53-15.33-9.13a2.54,2.54,0,0,1-1.12-.88,1.56,1.56,0,0,1,1.13-.59c3.12-.72,6.25-1.41,9.38-2.09a3.47,3.47,0,0,1,1.18,0C91.92,182.65,95.95,188.26,99.85,194Z"/><path class="cls-2" d="M212.72,257c-5.35,4.11-10.7,8.22-16.22,12.09h0a1.12,1.12,0,0,1-.1-1.13c1.73-5.43,3.42-10.88,5.19-16.3a1.58,1.58,0,0,1,.19-.34.75.75,0,0,1,.31-.25c1.8.09,3.09,1.33,4.59,2.09,1.71.87,3.38,1.81,5,2.76C212.16,256.13,212.71,256.3,212.72,257Z"/><path class="cls-2" d="M87.82,177.08c-2.9,1-5.93,1.36-8.88,2.11-.93.24-1.87.4-2.81.6l-.3-.07a2.28,2.28,0,0,1-.41-1.74q0-7.48,0-15a2.52,2.52,0,0,1,.42-1.75h0c.08,0,.19,0,.23.09Z"/><path class="cls-11" d="M183.1,146.13c.24-1.67-.4-3.22-.7-4.81-.89-4.75-1.85-9.49-2.78-14.24-.12-.29-.21-.57.28-.55l13.77,15.87c-.17.66-.76.81-1.28,1-2.87,1-5.71,2.07-8.58,3a1,1,0,0,1-.59,0A.23.23,0,0,1,183.1,146.13Z"/><path class="cls-1" d="M46.26,267.52c2.59-1.06,4.86-2.73,7.33-4,1.54-.79,2.89-1.94,4.6-2.39a1.9,1.9,0,0,1,.72,1.21c1.46,4.41,3,8.82,4.41,13.23a2.33,2.33,0,0,1,.19,1.28l-.07.11C57.67,273.92,51.92,270.81,46.26,267.52Z"/><path class="cls-1" d="M212.72,257a69.42,69.42,0,0,0-6.48-3.68,20.5,20.5,0,0,0-4.18-2.14A.18.18,0,0,1,202,251c0-.06,0-.09,0-.09a3.49,3.49,0,0,0,1.65-.32L224,244c.31-.1.62-.39,1-.09Z"/><path class="cls-2" d="M134.05,17.44c.13.78.84.65,1.33.79,3.42,1,6.85,2,10.28,2.92l-7.21,15.27c-.75-.55-.66-1.45-.85-2.21-1.27-5.16-2.48-10.34-3.7-15.52-.08-.34-.1-.69-.14-1Z"/><path d="M137.94,232.91,138,232c.22-.39.55-.2.8-.11,4.36,1.59,8.7,3.21,13,4.84a1.15,1.15,0,0,1,.42.31.43.43,0,0,1-.07.57l0,0a3.59,3.59,0,0,1-1.25,1.13c-3.55,2.42-7.21,4.67-10.77,7.08-.42.29-.83.68-1.43.5l-.09,0-.09,0Z"/><path class="cls-12" d="M232.24,227.75,221.59,222c-.46-.25-.94-.45-1.42-.67l0-.15.09-.12,11.87-10.73c0,3.41,0,6.45,0,9.49,0,.51-.16,1,.16,1.53Q232.25,224.57,232.24,227.75Z"/><path class="cls-2" d="M100.37,232.7l15.1-1.26c.39,0,.78,0,1.18-.06-1.88,3.55-4.17,6.86-6.22,10.31-.58,1-1.22,1.91-1.84,2.86l-.1-.11a1.64,1.64,0,0,1-.87-.76l-7.1-9.94a1.46,1.46,0,0,1-.3-.72A.49.49,0,0,1,100.37,232.7Z"/><path class="cls-3" d="M183.54,146.25l8.48-3.1a5.66,5.66,0,0,0,1.66-.75L206,157.64h-.25c-1.22,0-2.14-.74-3.11-1.26-5.24-2.83-10.64-5.34-15.92-8.09A8.11,8.11,0,0,1,183.54,146.25Z"/><path class="cls-1" d="M100.57,195c-.42.58-.12,1.25-.23,1.87-1-.71-.71-1.55-.25-2.4v0A.6.6,0,0,1,100.57,195Z"/><path class="cls-13" d="M179.9,126.53c-.22.12-.24.34-.28.55-.32-.33-.23-.74-.22-1.14Z"/><path class="cls-7" d="M152.23,237.65l.05-.41a6.08,6.08,0,0,1-.7-2.9c-1.06-6.84-2.17-13.67-3.17-20.52a.76.76,0,0,1,.15-.45,1.17,1.17,0,0,1,.43-.21c2.55-.07,5.06.38,7.6.54,4.07.26,8.13.53,12.19,1,2,.21,4,0,6,.72.63.61.13,1.08-.28,1.43-2.87,2.45-5.35,5.31-8.16,7.82-.55.5-1.14,1-1.65,1.5-3.44,3.62-7.27,6.85-10.72,10.46a5.06,5.06,0,0,1-1.17.83Z"/><path class="cls-9" d="M176.43,262.68c-2.14.17-4.13-.65-6.16-1.08-6.62-1.4-13.21-2.92-19.81-4.41-.33-.07-.64-.2-1.17-.38,3.07-2.06,6-4,8.87-5.93l16.74-11.1c.79.18.64.86.66,1.38.3,6.77.87,13.53,1.17,20.3C176.75,261.9,176.82,262.34,176.43,262.68Z"/><path class="cls-7" d="M176.43,262.68c-.33-4.91-.67-9.81-1-14.72-.14-2.26-.19-4.53-.3-6.8,0-.46.15-1-.25-1.37q0-.13,0-.26l.17-.11a1,1,0,0,1,.59,0c8.33,3.47,16.61,7.07,24.94,10.54a3.57,3.57,0,0,1,1.44.88h0l0,.27h0a13.25,13.25,0,0,1-3.55,2q-8.61,3.93-17.18,8c-1.15.54-2.34,1-3.47,1.59-.34.18-.72.37-1.11.08Z"/><path class="cls-11" d="M152.76,237.43a79.76,79.76,0,0,1,5.63-5.66c4.54-4.42,9.13-8.8,13.7-13.19l2.83-2.72a.3.3,0,0,1,.43.15,3.62,3.62,0,0,1,.24,1.67c.08,6.79-.44,13.56-.27,20.35a1.86,1.86,0,0,1-.41,1.48v0l-19.53-1.84Z"/><path class="cls-5" d="M176.74,262.74l16.95-7.8c2.78-1.28,5.58-2.53,8.37-3.8q-2.61,8.26-5.22,16.51c-.14.46-.23.93-.35,1.4-1.49.07-2.79-.66-4.16-1.07-4.89-1.47-9.76-3-14.64-4.55C177.34,263.31,176.75,263.39,176.74,262.74Z"/><path class="cls-8" d="M138.8,246.42l13.45-8.72a70.62,70.62,0,0,1-1.19,7.6c-.52,3.31-1.13,6.6-1.71,9.9-.08.43-.19.85-.25,1.1Z"/><path class="cls-9" d="M8.7,174l31.58-14.29c.19,0,.41-.23.58.06.28.5,0,.94-.19,1.37-3.27,8.19-6.64,16.34-9.92,24.53a.56.56,0,0,1-.73.24L9.1,174.43C8.91,174.32,8.71,174.22,8.7,174Z"/><path class="cls-3" d="M51.1,174.47h.19a2.13,2.13,0,0,1,1.66,0q10.73,2.39,21.48,4.71a3.2,3.2,0,0,1,1,.35c.72.77,0,1.08-.49,1.41-2.62,1.91-5.26,3.8-7.89,5.71-4.58,3.32-9.18,6.61-13.77,9.92-.68.49-1.25,1.27-2.26,1.12a1.21,1.21,0,0,1-.22-.41,6.76,6.76,0,0,1-.12-1.7q0-9.47,0-18.93A3,3,0,0,1,51.1,174.47Z"/><path class="cls-1" d="M51.1,174.47q0,11.62,0,23.23a.23.23,0,0,1-.14.3.79.79,0,0,1-.38-.06c-5.85-3.42-11.82-6.63-17.71-10-1-.57-2.22-.87-2.85-2v-.12l.53-.34a42.23,42.23,0,0,1,5.66-3.3c4.39-2.47,8.79-4.95,13.2-7.38.45-.25.87-.64,1.45-.41A.8.8,0,0,0,51.1,174.47Z"/><path class="cls-5" d="M75.6,179.85l-23.16-5.12-1.15-.26a.89.89,0,0,0,0-.22l23.24-12.43a2.46,2.46,0,0,1,1.31-.53v18.44h0A.18.18,0,0,1,75.6,179.85Z"/><path class="cls-6" d="M50.87,174.44,32,185a2.72,2.72,0,0,1-1.43.58c.84-2.85,2.12-5.54,3.22-8.29,2.33-5.85,4.72-11.68,7.08-17.51.43,0,.56.39.74.66q4.55,6.78,9.08,13.57A2.44,2.44,0,0,1,50.87,174.44Z"/><path class="cls-7" d="M100.37,232.7l0,.26a29,29,0,0,1-4,3.73c-3.82,3.35-7.71,6.63-11.5,10A11.66,11.66,0,0,1,83,248h0c-.14-.08-.41-.17-.41-.25.15-2.61.22-5.23.54-7.83.17-1.43.15-2.87.3-4.31.17-1.73.35-3.48.37-5.23,0-.94-.19-1.2-1.09-.7q-2.82,1.55-5.71,3-9.29,4.67-18.6,9.31c-.42.21-.82.49-1.22.74h-.54a7.18,7.18,0,0,1-.83-3.15c-.85-6.12-1.82-12.22-2.81-18.31a18.12,18.12,0,0,1-.19-2.09.89.89,0,0,1,.08-.44.81.81,0,0,1,.6-.24A37.13,37.13,0,0,1,58.33,220c7.8,2.76,15.69,5.26,23.52,7.92a3,3,0,0,1,1.62.79c2,.94,4.19,1.1,6.3,1.6C93.3,231.17,96.84,231.92,100.37,232.7Z"/><path class="cls-9" d="M63.52,276.86c-1.43-3.51-2.44-7.18-3.7-10.75-.58-1.65-1.08-3.32-1.62-5l.05-.2c.05-.13.12-.15.21,0,2.65.26,5.3.53,8,.77q7.11.65,14.22,1.27c3.57.31,7.14.56,10.71.87.28,0,1-.43.82.49-4,1.76-8.08,3.51-12.12,5.28Z"/><path class="cls-11" d="M58,260.05c-.13-4.8-.64-9.57-1-14.36-.06-.92-.42-1.89.17-2.78l24.71,5.21.06.3L58.47,260.69C58,260.73,58.15,260.24,58,260.05Z"/><path class="cls-1" d="M58,260.05l.51.64c0,.07,0,.14,0,.21l-.21,0c-.37-.11-.82.06-1.11-.32C57.56,260.63,57.93,260.59,58,260.05Z"/><path d="M157.75,135.17l.28,0,.13.18a2,2,0,0,1,0,1.28c-1.34,6.64-2.76,13.27-4.11,19.91a4.18,4.18,0,0,1-.61,1.85,1.07,1.07,0,0,1-.6.28,47.62,47.62,0,0,1-7.47-1.94c-5.43-1.51-10.86-3.07-16.28-4.64-.65-.19-1.4-.24-1.83-.89a.24.24,0,0,0,0-.2l.07-.18a6.46,6.46,0,0,1,2-1.29c6.2-3.1,12.29-6.42,18.49-9.52,2.83-1.42,5.55-3,8.42-4.35C156.66,135.43,157.13,135,157.75,135.17Z"/><path class="cls-3" d="M127.21,151,112.6,143.4l-5.1-2.66a.29.29,0,0,1-.1-.33A54.7,54.7,0,0,1,113,135.3c3.79-3.37,7.63-6.69,11.46-10,1.62-1.41,3.24-2.81,4.84-4.23.41-.36.84-1,1.57-.56l0,0a1.94,1.94,0,0,1,.15,1.53c-.74,6.27-1.51,12.54-2.26,18.81-.32,2.7-.7,5.39-1,8.1a3.85,3.85,0,0,1-.66,2.1Z"/><path class="cls-4" d="M107.48,140.5a1,1,0,0,0,0,.24L88,134.14a25.88,25.88,0,0,0-4.72-1.53l0-.29a17.45,17.45,0,0,1,3.46-2.58c6.81-4.63,13.59-9.28,20.41-13.91a5.81,5.81,0,0,1,.9-.54c.46-.2.86-.23,1,.36.4,2.64-.15,5.25-.25,7.87-.08,2.09-.24,4.2-.37,6.29-.19,3.1-.34,6.21-.57,9.31A3.36,3.36,0,0,1,107.48,140.5Z"/><path class="cls-8" d="M127.23,151.22l24.82,7.07c.25.07.51.12.77.18.12,1-.78,1.07-1.31,1.39C146.42,163,141.28,166,136.17,169c-2.52,1.51-5,3-7.56,4.52-.51.3-1,.79-1.65.68l-.25,0a2.23,2.23,0,0,1-.43-1.61c-.14-6.61.44-13.2.27-19.81a1.82,1.82,0,0,1,.48-1.45A.3.3,0,0,0,127.23,151.22Z"/><path class="cls-6" d="M127,151.34l-.33,22.86a76.06,76.06,0,0,1-7.54-1.56c-5.15-1.12-10.29-2.29-15.43-3.42-.35-.08-.72-.05-.75-.54l23.48-17A5.36,5.36,0,0,1,127,151.34Z"/><path class="cls-6" d="M29.76,209.55c-2-.73-4-.59-6.06-.79-6.43-.65-12.87-1.21-19.31-1.8l-3.91-.39a46.69,46.69,0,0,1,5.76-4.1c7.51-5.21,15.09-10.32,22.65-15.47.36-.25.75-.45,1.12-.68a1.6,1.6,0,0,1,.41,1.21c0,7.12.11,14.23-.05,21.35a1.65,1.65,0,0,1-.17.49A.37.37,0,0,1,29.76,209.55Z"/><path class="cls-4" d="M30,209.23q0-11.45,0-22.91l0-.32q9.49,5.31,19,10.63c.63.35,1.39.56,1.77,1.27A10.5,10.5,0,0,1,47.51,200c-5.37,3-10.7,6-16.05,9a2.39,2.39,0,0,1-1.1.41A.59.59,0,0,1,30,209.23Z"/><path class="cls-1" d="M127.5,288.81c.26-2.6.53-5.21.76-7.81.48-5.39.93-10.78,1.4-16.18a2.64,2.64,0,0,1,.15-.5,50,50,0,0,1,6.25,3.53c6.29,3.7,12.55,7.48,18.81,11.23-.33.83-1.17.82-1.82,1-7.49,2.56-15,5.08-22.48,7.62-1,.32-1.88.71-2.82,1.06h-.24Z"/><path class="cls-9" d="M103.28,297.8,127.22,289c.36.31.24.72.2,1.1q-.63,6-1.26,12c-.14,1.34-.38,2.68-.48,4-.06.84-.33,1-1.06.66-2.1-.88-4.21-1.7-6.31-2.56l-14.18-5.85C103.8,298.22,103.43,298.18,103.28,297.8Z"/><path class="cls-4" d="M127.2,151q.85-7.22,1.71-14.43t1.73-14.3c.07-.61.19-1.21.28-1.81,2.51,1,4.79,2.51,7.18,3.77,4.29,2.26,8.52,4.63,12.73,7a70.16,70.16,0,0,1,6.92,3.93Z"/><path class="cls-6" d="M155.16,115.73l.22.16a65.9,65.9,0,0,1-7.58,1.4c-5.62,1-11.26,1.94-16.89,2.91l-.17-.19a2.35,2.35,0,0,1-.24-1.15c-.1-7.48-.43-15-.27-22.45a2,2,0,0,1,.44-1.59q6.59,5.65,13.18,11.31c3.42,2.95,6.83,5.91,10.25,8.86A12.11,12.11,0,0,0,155.16,115.73Z"/><path class="cls-6" d="M107.48,140.5q.37-6.25.74-12.51c.1-1.61.16-3.22.22-4.83a77.82,77.82,0,0,0,.34-8l.16-.15a2.56,2.56,0,0,1,1.79.06c6.18,1.42,12.34,3,18.52,4.37a3,3,0,0,1,1.65.73h0l0,.28c-1.52.41-2.39,1.72-3.49,2.66-4.55,3.87-9,7.86-13.48,11.8C111.78,136.81,109.63,138.65,107.48,140.5Z"/><path class="cls-6" d="M179.05,125.68a52.5,52.5,0,0,1-6.37,2.94c-4.59,2-9.2,4-13.79,6.06a2.87,2.87,0,0,0-.59.49c-.07.12-.15.14-.25,0h0l-1.19-9-1.33-10.06,8.55,3.48Z"/><path class="cls-2" d="M92.5,80.68q-4-6-8-12c-.21-.32-.51-.62-.41-1.07l16.69-1.77,11-1.13c0,.63-.44.92-.83,1.25-5.57,4.7-11.06,9.49-16.57,14.26-.41.36-.93.46-1.35.77Z"/><path class="cls-14" d="M93,81l13.71-11.86c1.69-1.46,3.35-2.95,5-4.42a.22.22,0,0,0,.14,0,1.6,1.6,0,0,1,.61.9c.73,4.24,1.64,8.44,2.17,12.72a1.22,1.22,0,0,1-.25.64,3.91,3.91,0,0,1-1.31.5c-6,.63-11.94,1.21-17.9,1.89a2.16,2.16,0,0,1-1.53-.21Z"/><path class="cls-4" d="M112.12,65.35l-.26-.71c.84-3.8,1.26-7.66,1.93-11.49.15-.85.32-1.7.47-2.55l.33.34c-.34.72.37.57.62.65,4.39,1.55,8.8,3.07,13.2,4.59a10.58,10.58,0,0,1,2.5,1.05c-5.66,2.19-11.32,4.37-17,6.61-.52.21-1.44,0-1.47,1C112.46,65.09,112.41,65.31,112.12,65.35Z"/><path class="cls-2" d="M205.16,179l.05,2.09-.28.24,0,.19a36.79,36.79,0,0,1-6.13,3.53c-5.65,3.09-11.36,6.07-17,9.16a1.91,1.91,0,0,1-.61.23.67.67,0,0,1-.58-.24,1.4,1.4,0,0,1-.18-.43c-.71-7.17-1.33-14.36-1.94-21.54a53.46,53.46,0,0,1-.49-7.31l.15-.19c1.51.31,2.61,1.37,3.86,2.13,7.16,4.36,14.28,8.77,21.41,13.18,1.39.86,1.37.89,1.6-.73C205,179.16,205.1,179.06,205.16,179Z"/><path class="cls-11" d="M178.06,164.47q0,.12,0,.23l0,.07a13.69,13.69,0,0,1-3.14,3.35c-2.27,1.88-4.28,4-6.42,6-4,3.76-8,7.5-11.94,11.32-.31.3-.58.68-1.08.68l-.18-.11a1.19,1.19,0,0,1-.2-.4c-.57-5.71-1-11.43-1.45-17.15-.21-2.57-.38-5.15-.68-7.72a3.82,3.82,0,0,1,.12-1.94.67.67,0,0,1,.33-.3,2.13,2.13,0,0,1,1.54.05c7.29,1.78,14.6,3.47,21.9,5.25a2.19,2.19,0,0,1,1.07.46Z"/><path class="cls-2" d="M183.54,146.25,198.61,154c2.37,1.22,4.73,2.46,7.1,3.69-.34.68-1.06.56-1.61.69q-12.55,3.06-25.13,6a6.28,6.28,0,0,1-.91.08h0a2.54,2.54,0,0,1,.18-1.78c1.52-5.37,3.1-10.73,4.57-16.12a.8.8,0,0,1,.26-.34Z"/><path class="cls-11" d="M29.76,209.55l.26-.05c.77,1.4.42,2.91.32,4.36-.18,2.57-.27,5.15-.42,7.73-.27,4.41-.4,8.82-.75,13.23-.07.88,0,1.75-.06,2.63,0,.56,0,1.16-.5,1.56l-.18.05c-6.38-3.54-12.74-7.11-19.14-10.62a47.12,47.12,0,0,0-5.89-3.11c.32-.89,1.22-1.06,1.9-1.46Q17.1,217,28.92,210.15C29.21,210,29.48,209.75,29.76,209.55Z"/><path class="cls-1" d="M138,200.57l-.29,0c-1-3-2.37-5.83-3.57-8.74-2.41-5.78-4.87-11.54-7.3-17.31H127a2.26,2.26,0,0,1,1.63.34q12.36,5.06,24.74,10.05a3.54,3.54,0,0,1,1.78,1c.25.67-.28,1-.66,1.28q-7.46,6.24-14.88,12.53C139.17,200.11,138.75,200.64,138,200.57Z"/><path class="cls-1" d="M83.48,228.75c-3.59-.92-7.06-2.25-10.57-3.42-6.49-2.17-13-4.4-19.45-6.6a.46.46,0,0,1-.12-.35c.17-.5.62-.72,1-1,8.84-5.66,17.64-11.39,26.49-17,.32-.2.62-.52,1.07-.33l.27,0a2.46,2.46,0,0,1,.62,1.69c.09,3.5.4,7,.58,10.47q.31,6.08.7,12.17c.08,1.36.45,2.78-.32,4.09Z"/><path class="cls-8" d="M83.76,228.46c-.07-4.72-.4-9.43-.76-14.14-.13-1.74-.14-3.49-.25-5.24-.2-3-.29-6-.57-9l.25,0c1.11.12,1.69,1.06,2.45,1.67,5,4,9.87,8.15,14.83,12.2a7,7,0,0,1,1.37,1.41,1,1,0,0,1,0,.21L84.91,228.22C84.58,228.48,84.24,228.83,83.76,228.46Z"/><path class="cls-9" d="M101.19,215.61l13.58,2.65c-3.08,3.35-6.4,6.46-9.62,9.68-1.48,1.48-2.79,3.13-4.18,4.7l-.67-.41Z"/><path class="cls-1" d="M52.89,219a21,21,0,0,1,.8,4.17c.65,3.81,1.19,7.64,1.76,11.46.4,2.71.77,5.42,1.16,8.12L43.19,241l-13.94-1.78-.3-.22c-.08-.66.47-.88.85-1.21,7.16-6.09,14.43-12.05,21.62-18.1C51.84,219.34,52.25,218.89,52.89,219Z"/><path class="cls-7" d="M183.07,146.24v.28a5.37,5.37,0,0,1-2.4,1.3c-8.21,3.32-16.4,6.68-24.6,10a12.43,12.43,0,0,1-2.5.77l-.23.06a.16.16,0,0,1-.09-.16q0-.1,0-.1l4.78-23.2.25,0,24.8,11Z"/><path class="cls-1" d="M83,248c1.61-1.46,3.2-2.95,4.83-4.38,2.36-2.07,4.72-4.13,7.13-6.13a59.29,59.29,0,0,1,5.41-4.51l8.15,11.49-24.34,3.48C83.76,248,83.36,248,83,248Z"/><path d="M93.65,81.08l19.66-2c.31-.06.64-.18.82.22,0,.48-.42.75-.72,1.06L92.06,101.67a3.07,3.07,0,0,1-.81.66.3.3,0,0,1-.34-.08h0c.59-6.67,1.21-13.34,1.75-20C92.71,81.48,93,81.18,93.65,81.08Z"/><path class="cls-1" d="M202,250.86c-3.56-1.22-6.94-2.87-10.41-4.29-5-2-9.91-4.17-14.85-6.27a3.28,3.28,0,0,1-1.35-.76c.1-.72.75-.64,1.2-.76,6-1.63,12-3.21,18.06-4.79a10.17,10.17,0,0,0,1.61-.5c.11-.39-.2-.48-.39-.63-6.46-5.19-12.87-10.44-19.33-15.64-.47-.38-1-.69-1.25-1.31a.73.73,0,0,1,0-.39,14.58,14.58,0,0,1,4.33-2.4c4.21-1.94,8.38-4,12.57-6,3.79-1.8,7.61-3.55,11.39-5.4a1.65,1.65,0,0,1,1.25-.28.63.63,0,0,1,.28.31,2.42,2.42,0,0,1,0,1.42c-2.37,9.65-4.56,19.34-6.91,29a11.13,11.13,0,0,1-.34,1.13,1.47,1.47,0,0,1-.26.35q2.17,8.2,4.33,16.4C202,250.34,202,250.6,202,250.86Z"/><path class="cls-11" d="M197.59,233.69a1.08,1.08,0,0,0,0-.22c.66-1,1.83-1.33,2.8-1.86q8.88-4.85,17.76-9.71a4.74,4.74,0,0,1,1.69-.7.68.68,0,0,1,.36.14h0q1.52,6.85,3,13.7c.59,2.65,1.21,5.29,1.81,7.93-.11.71-.53.36-.87.24l-21.86-7.9C200.73,234.77,199.16,234.24,197.59,233.69Z"/><path class="cls-1" d="M220.2,221.35l-.28,0a2.28,2.28,0,0,1-.74-.73c-4.54-6.06-9.15-12.07-13.68-18.13-.18-.25-.29-.54-.49-.78l-.1-.1a1.39,1.39,0,0,1-.26-.45,4.18,4.18,0,0,1-.13-1.17q0-8.41,0-16.82a2.4,2.4,0,0,1,.44-1.74l0-.12c.4.46.22,1,.22,1.52,0,5.75,0,11.5,0,17.25,0,1.13.2,1.3,1.28.86,6.65-2.71,13.34-5.34,20-8-1.41,6.32-2.84,12.63-4.22,19-.67,3.07-1.56,6.1-2,9.22Z"/><path class="cls-2" d="M114,79.35c-.14-.34-.5-.17-.73-.31l1-.2c.6,0,.93.42,1.32.77,3.92,3.55,7.63,7.31,11.32,11.1,1.12,1.15,2.66,1.88,3.38,3.42l.29.26,0,.28c-3.13,3.38-6.64,6.37-9.94,9.58-2.8,2.72-5.72,5.32-8.47,8.09a22.39,22.39,0,0,1-3.42,2.86h0c-3.49,2.32-7,4.62-10.46,7s-7.13,4.88-10.71,7.3a25.42,25.42,0,0,1-4.36,2.85c.76-3.87,1.91-7.64,2.87-11.45,1.55-6.1,3.14-12.2,4.71-18.29l.09-.32h.17a3.07,3.07,0,0,1,1.63.79c4.84,3.48,9.72,6.89,14.58,10.34,1.14.81,1.27.76,1.49-.68,1.38-9,2.74-17.92,4.17-26.87A65.36,65.36,0,0,1,114,79.35Z"/><path class="cls-4" d="M108.78,115.2l6.79-6.55c.25-.24.56-.42.81-.66,2.84-2.74,5.61-5.54,8.52-8.19,1.65-1.5,3.24-3.07,4.84-4.62.25-.24.48-.52.88-.51a.15.15,0,0,1,.05.16c0,5.27-.18,10.54.05,15.8.14,3.2.07,6.39.2,9.59l-12.83-3c-2.71-.64-5.42-1.29-8.13-1.92A7.37,7.37,0,0,0,108.78,115.2Z"/><path class="cls-2" d="M153.27,158.41q0,.13.05.26.44,6,.89,11.92.59,7.73,1.18,15.46l-.09.09-.11-.07-16.79-6.87L127,174.49a2.27,2.27,0,0,1,0-.24l17.45-10.49,7.44-4.46c.36-.22.83-.32,1-.82Z"/><path class="cls-8" d="M81.91,200l-27.4,17.65c-.37.24-.7.51-1.05.77-.82,0-.84-.64-.89-1.19-.37-3.78-.72-7.55-1.08-11.33-.21-2.21-.43-4.43-.62-6.64a1.76,1.76,0,0,1,.2-1.38l.05-.21.23-.06c1.68-.6,3.39-.12,5.06,0,4.46.28,8.91.62,13.37.94,3.71.27,7.43.53,11.14.82.39,0,.8.07,1,.5A.25.25,0,0,0,81.91,200Z"/><path class="cls-6" d="M81.92,199.88l-15.55-1.14-15-1.1c2.46-1.81,4.91-3.62,7.38-5.41l16.46-11.9a2.63,2.63,0,0,0,.41-.48l.23-.13q2,6.52,4,13c.63,2,1.28,4,1.91,6C81.89,199.12,82.13,199.48,81.92,199.88Z"/><path class="cls-6" d="M101.09,215.31c-2.22-1.48-4.17-3.31-6.22-5-4.16-3.41-8.29-6.86-12.43-10.29,2.32-1,4.77-1.59,7.17-2.35,3.49-1.1,7-2.13,10.49-3.19a8.42,8.42,0,0,0,.25,2.4l.06,2.88c.26,1-.13,2.13.21,3.17l.06,2.9c.23,1-.11,2,.19,2.92l.08,3.14c.21,1-.13,1.95.19,2.89Z"/><path d="M155.2,186.07a.29.29,0,0,0,.19,0h.08a1.5,1.5,0,0,1,.06,1.27c-2.07,8.5-4,17-6.19,25.5a1.52,1.52,0,0,1-.57.65l-.18,0c-.51,0-.74-.41-1-.75-2.76-3.34-5.64-6.58-8.43-9.89a2.85,2.85,0,0,1-.86-1.44l-.24-.76,16.72-14A4.68,4.68,0,0,0,155.2,186.07Z"/><path class="cls-1" d="M138.29,201.33l10.3,12.08v.39a3.64,3.64,0,0,1-.89,2.25c-2.81,4.68-5.53,9.42-8.35,14.1-.29.47-.49,1-1.11,1.22-.39-.41-.23-.91-.23-1.38q0-13.66,0-27.31C138,202.23,137.85,201.71,138.29,201.33Z"/><path class="cls-6" d="M138.26,231.38l10.35-17.58a44.53,44.53,0,0,1,1.26,7c.83,4.9,1.56,9.81,2.31,14.71.09.56.07,1.13.1,1.7l-13.38-4.95c-.28-.1-.58-.17-.87-.25Z"/><path d="M112.12,65.35c.07-.2.11-.42.36-.49l19,9v.26a2.37,2.37,0,0,1-1.34.77c-4.75,1.25-9.43,2.71-14.18,4-.55.14-1.22.54-1.52-.39Z"/><path class="cls-1" d="M100.61,202.94a10.22,10.22,0,0,1-.21-3.17C100.85,200.81,100.51,201.89,100.61,202.94Z"/><path class="cls-1" d="M101.13,214.8a7.7,7.7,0,0,1-.19-2.89C101.37,212.85,101,213.84,101.13,214.8Z"/><path class="cls-1" d="M100.86,208.76a8.64,8.64,0,0,1-.19-2.92C101.12,206.79,100.78,207.79,100.86,208.76Z"/><path class="cls-4" d="M114.39,78.44c.38.59.86.21,1.27.1q7.89-2.2,15.77-4.44c-.08,4.5-.43,9-.7,13.48-.13,2.18-.11,4.37-.38,6.55-4-3.31-7.41-7.18-11.13-10.75-1.6-1.54-3.26-3-4.89-4.53Z"/><path class="cls-3" d="M52.89,219q-8.69,7.21-17.37,14.42c-2.21,1.85-4.39,3.74-6.58,5.61h-.33c.3-6.29.58-12.59.92-18.88.19-3.54.54-7.07.5-10.62v-.26l.25,0a23.42,23.42,0,0,1,5,1.81q7.79,3.16,15.57,6.35c.75.31,1.75.34,2.09,1.33A.7.7,0,0,0,52.89,219Z"/><path class="cls-1" d="M148.77,213.45l.25-.53c10.06-6.11,20.2-12.08,30.24-18.22.37-.23.71-.52,1.07-.76a.3.3,0,0,1,.35.06q0,.11.06.23a1.37,1.37,0,0,1,.06,1.26c-1.8,6.7-3.47,13.44-5.36,20.12q0,.1,0,.2-.12.25-.33.06h-.19a4.81,4.81,0,0,0-2.23-.53c-5.12-.37-10.24-.7-15.35-1.08C154.48,214,151.63,213.71,148.77,213.45Z"/><path class="cls-8" d="M175.11,215.86l.33-.06,15.26,12.41,6.66,5.41c-6.31,1.67-12.38,3.25-18.44,4.88a18.78,18.78,0,0,0-3.49,1l-.52,0Q175,227.68,175.11,215.86Z"/><path class="cls-1" d="M53,218.74c-3.91-1.87-8-3.3-12-5-3.57-1.52-7.23-2.81-10.73-4.49l19.35-10.79c.38-.21.78-.37,1.17-.56h.27l1.62,17c.09.91.18,1.83.26,2.74,0,.38.12.69.51.83v.27Z"/><path class="cls-9" d="M180.67,194l-.27,0c-.57.35-1.11.06-1.64-.12-6.41-2.14-12.87-4.09-19.27-6.25-.87-.3-1.78-.49-2.65-.79-.49-.17-1-.27-1.28-.83l19.6-18.61c1-.9,1.92-1.78,2.89-2.66.26,2.56.53,5.12.78,7.68.43,4.56.87,9.13,1.27,13.7C180.33,188.76,180.49,191.37,180.67,194Z"/><path class="cls-5" d="M175.43,215.6c-.55-.45-.07-.91,0-1.31q2.6-10,5.27-20.07l.41,0a17.13,17.13,0,0,1,4.95,1.19c5.8,1.7,11.61,3.37,17.4,5.1.54.16,1.12.27,1.43.83v.28q-9.37,4.42-18.74,8.84C182.58,212.12,179,213.87,175.43,215.6Z"/><path class="cls-8" d="M204.92,201.3,183.62,195c-.83-.25-1.65-.55-2.48-.83,4.54-2.47,9.06-5,13.61-7.39,3.39-1.82,6.71-3.77,10.2-5.39Q204.94,191.36,204.92,201.3Z"/><path class="cls-8" d="M155.58,186l24.83,8c-.7,1.21-2,1.59-3.11,2.25q-13.47,8.2-27,16.28c-.36.22-.72.71-1.27.36q2.33-9.75,4.66-19.5c.59-2.46,1.19-4.92,1.79-7.38Z"/><path class="cls-4" d="M153.56,158.6c3-1.49,6.11-2.6,9.18-3.86q9.9-4.06,19.82-8.07c.16-.07.33-.1.5-.15a36.76,36.76,0,0,1-1.58,6c-1.1,4-2.28,7.94-3.42,11.91Z"/><path class="cls-4" d="M114,79.35c.57.43.08.9,0,1.32-.85,5.55-1.73,11.1-2.58,16.65-.82,5.38-1.61,10.77-2.42,16.15-.11.72-.12,1.53-1.22.73q-8.35-6-16.74-12L113.35,80C113.56,79.75,113.8,79.56,114,79.35Z"/><path class="cls-9" d="M205,201.68c.46,0,.56.38.75.63q7,9.25,14,18.51a1.57,1.57,0,0,1,.15.49l-22.32,12.15c1.16-5,2.32-10,3.49-14.93,1.25-5.27,2.52-10.54,3.78-15.82C204.95,202.38,205,202,205,201.68Z"/><path class="cls-15" d="M361.75,72c-16.35,0-28.78.05-38,.12a22.33,22.33,0,0,0-22.16,22.4c0,1.35,0,2.54,0,3.49,0,15.92-.19,47.64-.19,47.65,0,6.38,9.25,7.16,9.25.81,0-3.13-.66-36.95-.66-36.95h34.09c2.55,0,2.75-7.53-.2-7.53-7.41,0-34.39-.05-34.39-.05l.09-6.15a15.82,15.82,0,0,1,15.62-15.51c13.55-.17,31.81-.39,36.14-.39S366.26,72,361.75,72Z"/><path class="cls-16" d="M431,143.13c0-.16-37.71.1-37.86.1-8.34,0-17.76-7.54-17.88-17.27l-.17-13.23s22.86-.66,34.29-.66c6.64,0,6.85-7.72.08-7.72H375.13L375,98.59a17.36,17.36,0,0,1,17.08-17.91c14.08-.22,30.35-.48,39-.48,5.36-.14,5.15-8.33-.21-8.19-6.16,0-24.22,0-40.92,0a23.44,23.44,0,0,0-23.42,23.45v26.84a28.52,28.52,0,0,0,29.07,28.52l35.06-.69c4.3-.34,4.7-6.64.41-7C430.9,143.15,431.05,143.28,431,143.13Z"/><path class="cls-16" d="M661,245c0-.16-37.71.1-37.86.1-8.34,0-17.76-7.54-17.89-17.27l-.17-13.23s22.86-.66,34.29-.66c6.64,0,6.85-7.72.08-7.72H605.1l-.13-5.76A17.36,17.36,0,0,1,622,182.51c14.08-.22,30.35-.48,39-.48,5.36-.14,5.15-8.33-.21-8.19-6.16,0-24.22,0-40.92,0a23.44,23.44,0,0,0-23.42,23.45v26.84a28.52,28.52,0,0,0,29.07,28.52l35.06-.69c4.3-.34,4.7-6.64.41-7C660.86,245,661,245.12,661,245Z"/><path d="M499.36,145.8V99.42c0-10.61-10.81-19.3-21.42-19.3h-7.81c-10.61,0-21.58,8.68-21.58,19.3V145.8c0,6.48-7.47,6.9-7.84.43q0-.8,0-1.62V100.44A28.5,28.5,0,0,1,469.08,72H479a28.5,28.5,0,0,1,28.42,28.42v44.18q0,.82,0,1.62C507,152.7,499.36,152.28,499.36,145.8Z"/><path d="M433.06,208.19v-7c0-10.61-10.81-19.3-21.42-19.3h-7.81c-10.61,0-21.58,8.68-21.58,19.3v46.38c0,6.48-7.47,6.9-7.84.43q0-.8,0-1.62V202.25a28.5,28.5,0,0,1,28.42-28.42h9.9a28.5,28.5,0,0,1,28.42,28.42v.3c0,.54,0,5.54,0,6.07C440.69,215.09,433.06,214.67,433.06,208.19Z"/><path d="M528.82,218.34v7c0,10.61,10.81,19.3,21.42,19.3h7.81c10.61,0,21.58-8.68,21.58-19.3V178.91c0-6.48,7.47-6.9,7.84-.43q0,.8,0,1.62v44.18a28.5,28.5,0,0,1-28.42,28.42h-9.9a28.5,28.5,0,0,1-28.42-28.42V224c0-.54,0-5.54,0-6.07C521.2,211.44,528.82,211.86,528.82,218.34Z"/><path d="M485.9,174.11h-9.55a27.48,27.48,0,0,0-27.4,27.4V225a27.48,27.48,0,0,0,27.4,27.4h9.55A27.48,27.48,0,0,0,513.3,225V201.51A27.48,27.48,0,0,0,485.9,174.11ZM505.55,226c0,10.23-10.42,18.61-20.66,18.61h-7.53c-10.23,0-20.81-8.37-20.81-18.61V200.53c0-10.23,10.57-18.61,20.81-18.61h7.53c10.23,0,20.66,8.37,20.66,18.61V226Z"/><path d="M338.09,173.81h-9.9a28.5,28.5,0,0,0-28.42,28.42v61.1q0,.81,0,1.62c.37,6.47,7.84,6,7.84-.43V201.21c0-10.61,11-19.3,21.58-19.3H337c10.61,0,21.42,8.68,21.42,19.3v12.46c0,.48-.06,1-.06,1.48V223c0,10.61-8.68,21.42-19.3,21.42H324.85c-6.48,0-6.9,7.63-.43,8,.54,0,12.83,0,13.38,0h.3A28.5,28.5,0,0,0,366.51,224V202.23A28.5,28.5,0,0,0,338.09,173.81Z"/><path d="M602.07,105.77q0-.8,0-1.62v-3.71A28.5,28.5,0,0,0,573.7,72h-9.9a28.5,28.5,0,0,0-28.42,28.42v23.67a18.54,18.54,0,0,0,.66,4.06,28.52,28.52,0,0,0,27.76,22.4h32.06q.82,0,1.62,0c6.47-.37,6-7.84-.43-7.84H562.78c-10.61,0-19.75-10.56-19.7-21.18,0-5.52.19-22.09.19-22.09,0-10.61,11-19.3,21.58-19.3h7.81c10.61,0,21.42,8.68,21.42,19.3v5.92C594.08,111.81,601.7,112.24,602.07,105.77Z"/><path d="M731.65,207.74q0-.8,0-1.62v-3.71A28.5,28.5,0,0,0,703.27,174h-9.9A28.5,28.5,0,0,0,665,202.41v23.67a18.54,18.54,0,0,0,.66,4.06,28.52,28.52,0,0,0,27.76,22.4h32.06q.81,0,1.62,0c6.47-.37,6-7.84-.43-7.84H692.35c-10.61,0-19.75-10.56-19.7-21.18,0-5.52.19-22.09.19-22.09,0-10.61,11-19.3,21.58-19.3h7.81c10.61,0,21.42,8.68,21.42,19.3v5.92C723.65,213.79,731.28,214.21,731.65,207.74Z"/><path d="M806.72,217.91c-.37-6.47-8-6-8,.43v7c0,10.61-10.81,19.3-21.42,19.3h-7.81c-10.61,0-21.58-8.68-21.58-19.3V181.22c.37,0,.73.05,1.14.05h52.64c6.48,0,6.9-7.47.43-7.84q-.8,0-1.62,0H740.07a7.08,7.08,0,0,0,0,2.11c0,1.83,0,4.27,0,4.6v44.18a28.5,28.5,0,0,0,28.42,28.42h9.9a28.5,28.5,0,0,0,28.42-28.42V224C806.77,223.44,806.75,218.44,806.72,217.91Z"/><path d="M669.07,113a29.64,29.64,0,0,0-17.67-5.5l-14.22.12c-22,0-23.26-27.57,2.06-27.57h33.83c2.25,0,3.36-2.62,3.32-3.9S675,72,672.72,72H638.19a30,30,0,0,0-17.88,5.56c-10.51,7.64-9.69,27,1.48,33.62a32,32,0,0,0,16.4,4.33h12.17c25,0,23.74,27.25,2,27.25H616.61c-4.95,0-5.27,7.45-.33,7.73q.8,0,1.61,0h33.5a31.66,31.66,0,0,0,16.21-4.28C678.64,139.71,679.45,120.6,669.07,113Z"/><rect class="cls-17" x="516.4" y="72.02" width="8.76" height="78.83" rx="2.68" ry="2.68"/><path class="cls-17" d="M520.78,64h0a5.62,5.62,0,0,1-5.6-5.6h0a5.62,5.62,0,0,1,5.6-5.6h0a5.62,5.62,0,0,1,5.6,5.6h0A5.62,5.62,0,0,1,520.78,64Z"/></svg>